# xmcd
#
# Track frame offsets: 
#        150
#        14253
#        26467
#        40344
#        54425
#        68938
#        82689
#        97286
#        108743
#        122868
#        137305
#        150870
#        164433
#        178623
#        191012
#        204616
#        217840
#        231867
#        246858
#        261146
#
# Disc length: 3674 seconds
#
# Revision: 1
# Processed by: cddbd v1.5.2PL0 Copyright (c) Steve Scherf et al.
# Submitted via: ExactAudioCopy v0.95b3
#
DISCID=0d0e5814
DTITLE=Blind Willie McTell - Atlanta Strut
DYEAR=2004
DGENRE=Blues
TTITLE0=Love Changing Blues
TTITLE1=Three Women Blues
TTITLE2=Search The Desert For The Blues
TTITLE3=Broke Down Engine Blues
TTITLE4=Travelin' Blues
TTITLE5=Georgia Rag
TTITLE6=Southern Can Is Mine
TTITLE7=Statesboro Blues
TTITLE8=Death Cell Blues
TTITLE9=Drive Away Blues
TTITLE10=B&O Blues No. 1
TTITLE11=Mama Tain't Long Fo' Day
TTITLE12=Atlanta Strut
TTITLE13=God Don't Like It
TTITLE14=Scarey Day Blues
TTITLE15=Lord, Send Me An Angel
TTITLE16=Stomp Down Rider
TTITLE17=Razor Ball
TTITLE18=Writin' Paper Blues
TTITLE19=I Got A Religion And I'm So Glad
EXTD=n/a
EXTT0=
EXTT1=
EXTT2=
EXTT3=
EXTT4=
EXTT5=
EXTT6=
EXTT7=
EXTT8=
EXTT9=
EXTT10=
EXTT11=
EXTT12=
EXTT13=
EXTT14=
EXTT15=
EXTT16=
EXTT17=
EXTT18=
EXTT19=
PLAYORDER=
